<svg width="16" height="16" viewBox="0 0 16 16" fill="none" xmlns="http://www.w3.org/2000/svg">
<path d="M11.2083 1.20834L12.4167 2.41667L10.6 4.21667C10.275 4.54167 10.275 5.07501 10.6 5.40001C10.925 5.72501 11.4583 5.72501 11.7833 5.40001L13.5833 3.58334L14.7917 4.79167C14.8504 4.84926 14.9249 4.88817 15.0057 4.90349C15.0865 4.91882 15.1701 4.90988 15.2458 4.87779C15.3216 4.84571 15.3862 4.79193 15.4314 4.72321C15.4766 4.6545 15.5005 4.57394 15.5 4.49167V0.916674C15.5 0.683341 15.3167 0.500007 15.0833 0.500007H11.5083C11.4261 0.499524 11.3455 0.523402 11.2768 0.568632C11.2081 0.613862 11.1543 0.67842 11.1222 0.754169C11.0901 0.829919 11.0812 0.91347 11.0965 0.994293C11.1118 1.07512 11.1508 1.14959 11.2083 1.20834ZM1.20834 4.79167L2.41667 3.58334L4.21667 5.40001C4.54167 5.72501 5.07501 5.72501 5.40001 5.40001C5.72501 5.07501 5.72501 4.54167 5.40001 4.21667L3.58334 2.41667L4.79167 1.20834C4.84926 1.14959 4.88817 1.07512 4.90349 0.994293C4.91882 0.91347 4.90988 0.829919 4.8778 0.754169C4.84571 0.67842 4.79193 0.613862 4.72321 0.568632C4.6545 0.523402 4.57394 0.499524 4.49167 0.500007H0.916674C0.683341 0.500007 0.500007 0.683341 0.500007 0.916674V4.49167C0.500007 4.86667 0.950007 5.05001 1.20834 4.79167ZM4.79167 14.7917L3.58334 13.5833L5.40001 11.7833C5.72501 11.4583 5.72501 10.925 5.40001 10.6C5.07501 10.275 4.54167 10.275 4.21667 10.6L2.41667 12.4167L1.20834 11.2083C1.14959 11.1508 1.07512 11.1118 0.994293 11.0965C0.91347 11.0812 0.829919 11.0901 0.754169 11.1222C0.67842 11.1543 0.613862 11.2081 0.568632 11.2768C0.523402 11.3455 0.499524 11.4261 0.500007 11.5083V15.0833C0.500007 15.3167 0.683341 15.5 0.916674 15.5H4.49167C4.57394 15.5005 4.6545 15.4766 4.72321 15.4314C4.79193 15.3862 4.84571 15.3216 4.8778 15.2458C4.90988 15.1701 4.91882 15.0865 4.90349 15.0057C4.88817 14.9249 4.84926 14.8504 4.79167 14.7917ZM14.7917 11.2083L13.5833 12.4167L11.7833 10.6C11.4583 10.275 10.925 10.275 10.6 10.6C10.275 10.925 10.275 11.4583 10.6 11.7833L12.4167 13.5833L11.2083 14.7917C11.1508 14.8504 11.1118 14.9249 11.0965 15.0057C11.0812 15.0865 11.0901 15.1701 11.1222 15.2458C11.1543 15.3216 11.2081 15.3862 11.2768 15.4314C11.3455 15.4766 11.4261 15.5005 11.5083 15.5H15.0833C15.3167 15.5 15.5 15.3167 15.5 15.0833V11.5083C15.5005 11.4261 15.4766 11.3455 15.4314 11.2768C15.3862 11.2081 15.3216 11.1543 15.2458 11.1222C15.1701 11.0901 15.0865 11.0812 15.0057 11.0965C14.9249 11.1118 14.8504 11.1508 14.7917 11.2083Z" fill="#83888D"/>
</svg>
