<svg width="18" height="10" viewBox="0 0 18 10" fill="none" xmlns="http://www.w3.org/2000/svg">
<path fill-rule="evenodd" clip-rule="evenodd" d="M1 2C1.26522 2 1.51957 1.89464 1.70711 1.70711C1.89464 1.51957 2 1.26522 2 1C2 0.734784 1.89464 0.480429 1.70711 0.292893C1.51957 0.105357 1.26522 0 1 0C0.734783 0 0.48043 0.105357 0.292893 0.292893C0.105357 0.480429 0 0.734784 0 1C0 1.26522 0.105357 1.51957 0.292893 1.70711C0.48043 1.89464 0.734783 2 1 2ZM4.33333 1C4.33333 0.823189 4.40357 0.65362 4.5286 0.528596C4.65362 0.403571 4.82319 0.333333 5 0.333333H17C17.1768 0.333333 17.3464 0.403571 17.4714 0.528596C17.5964 0.65362 17.6667 0.823189 17.6667 1C17.6667 1.17681 17.5964 1.34638 17.4714 1.4714C17.3464 1.59643 17.1768 1.66667 17 1.66667H5C4.82319 1.66667 4.65362 1.59643 4.5286 1.4714C4.40357 1.34638 4.33333 1.17681 4.33333 1ZM5 4.33333C4.82319 4.33333 4.65362 4.40357 4.5286 4.5286C4.40357 4.65362 4.33333 4.82319 4.33333 5C4.33333 5.17681 4.40357 5.34638 4.5286 5.4714C4.65362 5.59643 4.82319 5.66667 5 5.66667H17C17.1768 5.66667 17.3464 5.59643 17.4714 5.4714C17.5964 5.34638 17.6667 5.17681 17.6667 5C17.6667 4.82319 17.5964 4.65362 17.4714 4.5286C17.3464 4.40357 17.1768 4.33333 17 4.33333H5ZM5 8.33333C4.82319 8.33333 4.65362 8.40357 4.5286 8.52859C4.40357 8.65362 4.33333 8.82319 4.33333 9C4.33333 9.17681 4.40357 9.34638 4.5286 9.47141C4.65362 9.59643 4.82319 9.66667 5 9.66667H17C17.1768 9.66667 17.3464 9.59643 17.4714 9.47141C17.5964 9.34638 17.6667 9.17681 17.6667 9C17.6667 8.82319 17.5964 8.65362 17.4714 8.52859C17.3464 8.40357 17.1768 8.33333 17 8.33333H5ZM2 5C2 5.26522 1.89464 5.51957 1.70711 5.70711C1.51957 5.89464 1.26522 6 1 6C0.734783 6 0.48043 5.89464 0.292893 5.70711C0.105357 5.51957 0 5.26522 0 5C0 4.73478 0.105357 4.48043 0.292893 4.29289C0.48043 4.10536 0.734783 4 1 4C1.26522 4 1.51957 4.10536 1.70711 4.29289C1.89464 4.48043 2 4.73478 2 5ZM1 10C1.26522 10 1.51957 9.89464 1.70711 9.70711C1.89464 9.51957 2 9.26522 2 9C2 8.73478 1.89464 8.48043 1.70711 8.29289C1.51957 8.10536 1.26522 8 1 8C0.734783 8 0.48043 8.10536 0.292893 8.29289C0.105357 8.48043 0 8.73478 0 9C0 9.26522 0.105357 9.51957 0.292893 9.70711C0.48043 9.89464 0.734783 10 1 10Z" fill="#83888D"/>
</svg>
