<svg width="10" height="11" viewBox="0 0 10 11" fill="none" xmlns="http://www.w3.org/2000/svg">
<path fill-rule="evenodd" clip-rule="evenodd" d="M7.59571 7.6316C8.24889 6.7895 8.55672 5.73019 8.45659 4.66917C8.35646 3.60816 7.85587 2.62514 7.05668 1.92011C6.25749 1.21508 5.21972 0.840993 4.1545 0.873955C3.08929 0.906918 2.07663 1.34445 1.32256 2.09755C0.567834 2.85117 0.128868 3.86421 0.0951181 4.93024C0.0613681 5.99627 0.435374 7.03505 1.14092 7.8349C1.84647 8.63475 2.83045 9.13547 3.89236 9.23502C4.95426 9.33458 6.01417 9.02547 6.85609 8.37069L6.87861 8.39426L9.10061 10.6168C9.14928 10.6655 9.20705 10.7041 9.27064 10.7304C9.33423 10.7567 9.40238 10.7703 9.47121 10.7703C9.54003 10.7703 9.60818 10.7567 9.67177 10.7304C9.73536 10.7041 9.79313 10.6655 9.8418 10.6168C9.89047 10.5681 9.92907 10.5103 9.95541 10.4468C9.98175 10.3832 9.99531 10.315 9.99531 10.2462C9.99531 10.1774 9.98175 10.1092 9.95541 10.0456C9.92907 9.98204 9.89047 9.92426 9.8418 9.8756L7.61928 7.6536C7.61162 7.64605 7.60376 7.63871 7.59571 7.6316ZM6.50828 2.83874C6.80402 3.1297 7.03923 3.47635 7.20033 3.85867C7.36144 4.24099 7.44526 4.65143 7.44694 5.0663C7.44863 5.48118 7.36816 5.89228 7.21018 6.2759C7.05219 6.65953 6.81981 7.00807 6.52645 7.30143C6.23308 7.5948 5.88454 7.82718 5.50092 7.98516C5.1173 8.14315 4.70619 8.22362 4.29132 8.22193C3.87644 8.22024 3.466 8.13643 3.08368 7.97532C2.70136 7.81421 2.35472 7.57901 2.06375 7.28326C1.48228 6.69224 1.15791 5.8954 1.16128 5.0663C1.16466 4.23721 1.49551 3.44303 2.08178 2.85676C2.66804 2.2705 3.46222 1.93964 4.29132 1.93627C5.12041 1.93289 5.91726 2.25727 6.50828 2.83874Z" fill="#83888D"/>
</svg>
